<mxfile host="app.diagrams.net" modified="2022-08-21T06:57:33.971Z" agent="5.0 (Macintosh; Intel Mac OS X 10_15_7) AppleWebKit/537.36 (KHTML, like Gecko) Chrome/100.0.4896.60 Safari/537.36" etag="iih9ormwZZew0H7C1JlM" version="20.2.5" type="github">
  <diagram id="OGliMiqBsA5IcWy225d6" name="Page-1">
    <mxGraphModel dx="946" dy="504" grid="1" gridSize="10" guides="1" tooltips="1" connect="1" arrows="1" fold="1" page="1" pageScale="1" pageWidth="827" pageHeight="1169" math="0" shadow="0">
      <root>
        <mxCell id="0" />
        <mxCell id="1" parent="0" />
        <mxCell id="yVUGEOpDQnxqWXRC_j62-4" style="edgeStyle=orthogonalEdgeStyle;rounded=0;orthogonalLoop=1;jettySize=auto;html=1;" edge="1" parent="1" source="yVUGEOpDQnxqWXRC_j62-1">
          <mxGeometry relative="1" as="geometry">
            <mxPoint x="170" y="240" as="targetPoint" />
          </mxGeometry>
        </mxCell>
        <mxCell id="yVUGEOpDQnxqWXRC_j62-1" value="JDE" style="rounded=0;whiteSpace=wrap;html=1;" vertex="1" parent="1">
          <mxGeometry x="40" y="200" width="80" height="40" as="geometry" />
        </mxCell>
        <mxCell id="yVUGEOpDQnxqWXRC_j62-5" style="edgeStyle=orthogonalEdgeStyle;rounded=0;orthogonalLoop=1;jettySize=auto;html=1;" edge="1" parent="1" source="yVUGEOpDQnxqWXRC_j62-2">
          <mxGeometry relative="1" as="geometry">
            <mxPoint x="170" y="280" as="targetPoint" />
          </mxGeometry>
        </mxCell>
        <mxCell id="yVUGEOpDQnxqWXRC_j62-2" value="PDI" style="rounded=0;whiteSpace=wrap;html=1;" vertex="1" parent="1">
          <mxGeometry x="40" y="280" width="80" height="40" as="geometry" />
        </mxCell>
        <mxCell id="yVUGEOpDQnxqWXRC_j62-7" style="edgeStyle=orthogonalEdgeStyle;rounded=0;orthogonalLoop=1;jettySize=auto;html=1;" edge="1" parent="1" source="yVUGEOpDQnxqWXRC_j62-6">
          <mxGeometry relative="1" as="geometry">
            <mxPoint x="330" y="260" as="targetPoint" />
          </mxGeometry>
        </mxCell>
        <mxCell id="yVUGEOpDQnxqWXRC_j62-6" value="Source Data" style="rounded=0;whiteSpace=wrap;html=1;" vertex="1" parent="1">
          <mxGeometry x="170" y="230" width="120" height="60" as="geometry" />
        </mxCell>
        <mxCell id="yVUGEOpDQnxqWXRC_j62-10" style="edgeStyle=orthogonalEdgeStyle;rounded=0;orthogonalLoop=1;jettySize=auto;html=1;entryX=0;entryY=0.5;entryDx=0;entryDy=0;" edge="1" parent="1" source="yVUGEOpDQnxqWXRC_j62-8" target="yVUGEOpDQnxqWXRC_j62-9">
          <mxGeometry relative="1" as="geometry" />
        </mxCell>
        <mxCell id="yVUGEOpDQnxqWXRC_j62-8" value="Datalake&lt;br&gt;(Raw Tables)" style="rounded=0;whiteSpace=wrap;html=1;" vertex="1" parent="1">
          <mxGeometry x="330" y="230" width="120" height="60" as="geometry" />
        </mxCell>
        <mxCell id="yVUGEOpDQnxqWXRC_j62-11" style="edgeStyle=orthogonalEdgeStyle;rounded=0;orthogonalLoop=1;jettySize=auto;html=1;" edge="1" parent="1" source="yVUGEOpDQnxqWXRC_j62-9">
          <mxGeometry relative="1" as="geometry">
            <mxPoint x="670" y="260" as="targetPoint" />
          </mxGeometry>
        </mxCell>
        <mxCell id="yVUGEOpDQnxqWXRC_j62-9" value="Mapped&lt;br&gt;(DWH)" style="rounded=0;whiteSpace=wrap;html=1;" vertex="1" parent="1">
          <mxGeometry x="500" y="230" width="120" height="60" as="geometry" />
        </mxCell>
        <mxCell id="yVUGEOpDQnxqWXRC_j62-16" value="" style="edgeStyle=orthogonalEdgeStyle;rounded=0;orthogonalLoop=1;jettySize=auto;html=1;" edge="1" parent="1" source="yVUGEOpDQnxqWXRC_j62-12" target="yVUGEOpDQnxqWXRC_j62-15">
          <mxGeometry relative="1" as="geometry" />
        </mxCell>
        <mxCell id="yVUGEOpDQnxqWXRC_j62-18" value="" style="edgeStyle=orthogonalEdgeStyle;rounded=0;orthogonalLoop=1;jettySize=auto;html=1;" edge="1" parent="1" source="yVUGEOpDQnxqWXRC_j62-12" target="yVUGEOpDQnxqWXRC_j62-17">
          <mxGeometry relative="1" as="geometry" />
        </mxCell>
        <mxCell id="yVUGEOpDQnxqWXRC_j62-12" value="Mart" style="rounded=0;whiteSpace=wrap;html=1;" vertex="1" parent="1">
          <mxGeometry x="680" y="230" width="120" height="60" as="geometry" />
        </mxCell>
        <mxCell id="yVUGEOpDQnxqWXRC_j62-14" style="edgeStyle=orthogonalEdgeStyle;rounded=0;orthogonalLoop=1;jettySize=auto;html=1;entryX=0.5;entryY=0;entryDx=0;entryDy=0;" edge="1" parent="1" source="yVUGEOpDQnxqWXRC_j62-13" target="yVUGEOpDQnxqWXRC_j62-12">
          <mxGeometry relative="1" as="geometry" />
        </mxCell>
        <mxCell id="yVUGEOpDQnxqWXRC_j62-13" value="Standard&lt;br&gt;Data&lt;br&gt;Dictionary" style="whiteSpace=wrap;html=1;aspect=fixed;" vertex="1" parent="1">
          <mxGeometry x="700" y="100" width="80" height="80" as="geometry" />
        </mxCell>
        <mxCell id="yVUGEOpDQnxqWXRC_j62-15" value="Standard&lt;br&gt;Modules&lt;br&gt;+&lt;br&gt;Reports" style="rounded=0;whiteSpace=wrap;html=1;" vertex="1" parent="1">
          <mxGeometry x="860" y="180" width="120" height="60" as="geometry" />
        </mxCell>
        <mxCell id="yVUGEOpDQnxqWXRC_j62-17" value="DNA&lt;br&gt;Business Use Cases" style="whiteSpace=wrap;html=1;rounded=0;" vertex="1" parent="1">
          <mxGeometry x="860" y="280" width="120" height="60" as="geometry" />
        </mxCell>
      </root>
    </mxGraphModel>
  </diagram>
</mxfile>
